<svg width="313" height="190" viewBox="0 0 313 190" fill="none" xmlns="http://www.w3.org/2000/svg">
<path d="M260.651 86.9035C264.033 86.4615 263.653 88.3927 263.673 91.0853C263.683 92.1678 263.692 93.1289 263.805 94.207C265.313 94.4775 269.299 94.2383 269.642 94.8857C272.785 100.788 264.714 99.6051 263.736 99.6415C263.413 102.459 263.4 106.817 264.169 109.515C267.761 110.771 272.145 109.236 269.245 114.557C258.769 116.425 254.761 114.442 255.847 103.55C256.212 99.8804 254.869 97.7509 251.581 101.116C249.073 101.611 245.23 102.293 243.005 100.678C240.806 99.1468 239.689 97.9161 236.973 99.2034C231.991 101.565 232.657 108.753 237.856 110.221C240.502 110.967 242.116 108.948 244.029 107.619C245.063 106.901 250.262 106.836 251.579 107.136C251.806 107.541 251.871 107.601 251.733 108.165C251.037 111.012 249.171 112.234 246.633 113.597C243.078 115.507 235.915 115.487 232.193 114.085C231.344 113.765 228.579 111.565 227.679 111.298C227.124 112.501 226.748 113.266 226.068 114.401C222.116 115.503 218.858 115.407 215.31 113.411L213.496 112.073C210.798 113.469 208.208 114.857 205.135 115.073C202.983 115.207 199.977 115.301 198.355 113.611C193.028 108.062 197.333 104.075 203.087 102.609C207.378 101.515 209.469 101.474 213.5 101.295C213.429 100.551 213.466 99.468 213.47 98.695C211.447 98.1651 209.77 97.809 207.666 98.1918C203.595 98.9329 200.732 103.039 197.105 98.9557C197.669 98.3126 199.511 96.4562 200.179 95.9984C203.523 93.7116 210.1 93.2458 213.902 93.7993C226.349 95.6114 220.124 106.596 222.46 109.711C223.614 110.455 225.326 110.332 226.725 110.375C223.983 102.023 225.831 95.8344 235.524 93.9407C241.176 92.8369 245.13 94.0585 249.867 97.2991C251.377 94.3048 251.136 94.9043 253.938 94.7117C256.593 94.0786 256.574 91.2558 256.775 89.2549C256.994 87.0692 259.278 87.0438 260.651 86.9035ZM208.093 110.272C209.95 110.168 211.728 109.181 212.963 107.822C213.067 107.707 213.167 107.59 213.266 107.469C213.498 106.399 213.639 105.717 213.75 104.615C212.676 104.652 211.394 104.664 210.341 104.746C208.51 104.998 206.287 105.305 205.059 106.834C204.326 107.746 204.397 108.804 205.465 109.416C206.484 109.999 206.926 110.183 208.093 110.272Z" fill="url(#paint0_linear_13860_2123)"/>
<path d="M168.153 86.1615C168.229 86.1554 168.304 86.1496 168.38 86.1444C170.949 85.9672 174.003 86.1164 176.616 86.1186C182.966 86.1244 196.821 84.7252 197.385 94.0101C197.517 96.2131 196.748 98.3751 195.258 100.003C192.323 103.252 188.683 103.454 184.675 103.639C183.319 103.685 176.255 103.178 175.8 104.38C174.988 106.529 177.816 114.279 173.618 114.464C172.419 114.517 168.118 114.487 167.294 113.774C167.052 112.149 167.166 104.759 167.179 102.64C167.207 98.0278 166.72 91.4288 167.073 86.9751C167.512 86.3214 167.364 86.5168 168.153 86.1615ZM175.591 98.1742C178.352 98.2567 183.897 98.6866 186.111 97.4216C186.835 96.772 188.158 95.4895 188.061 94.4972C187.688 90.7291 178.703 91.6635 176.201 91.724C175.06 93.1251 175.712 96.3482 175.591 98.1742Z" fill="url(#paint1_linear_13860_2123)"/>
<path d="M283.033 93.5874C289.78 93.195 295.788 96.7083 298.105 103.552C298.706 105.33 296.279 108.321 295.274 109.878C293.047 113.322 289.448 114.368 285.607 115.011C281.478 115.151 277.701 114.994 274.279 112.303C269.971 108.915 268.768 102.662 272.377 98.2829C275.22 94.8315 278.747 94.0101 283.033 93.5874ZM279.137 101.367C278.239 105.883 278.981 110.49 284.716 110.047C288.121 107.564 289.39 105.633 288.093 101.279C286.262 99.4299 285.458 98.5696 282.716 98.9137C280.922 99.4348 280.328 99.8806 279.137 101.367Z" fill="url(#paint2_linear_13860_2123)"/>
<path d="M153.367 93.9496C163.545 92.6452 164.014 101.211 163.728 108.446C163.646 110.521 163.977 112.021 163.233 114.078C162.541 114.635 157.348 114.406 156.17 114.371C155.343 110.569 156.313 105.585 155.528 101.395C152.025 98.8811 151.492 98.7378 147.81 101.177C144.144 103.875 146.277 112.348 145.022 114.104C143.431 114.752 140.028 114.343 138.284 114.142C137.836 114.09 137.565 112.383 137.579 111.999C137.761 106.864 137.458 101.721 137.672 96.5907C137.687 96.2365 137.851 95.177 138.161 95.0004C139.553 94.2072 142.138 94.3992 143.705 94.3901C144.877 95.2013 145.215 95.7936 145.936 96.9698C148.818 95.2644 149.981 94.3586 153.367 93.9496Z" fill="url(#paint3_linear_13860_2123)"/>
<path d="M132.049 85.7997C132.531 85.6997 132.593 85.7408 133.087 85.857C133.904 86.5133 134.134 88.057 134.101 89.0558C133.886 95.7372 133.849 102.392 133.966 109.079C133.991 110.52 134.052 112.667 133.571 113.987C132.682 114.65 129.054 114.365 127.795 114.345C126.808 114.334 126.417 114.424 125.724 113.789C125.123 112.069 125.4 88.4344 125.826 86.2995C127.29 86.0058 130.242 86.0138 132.049 85.7997Z" fill="url(#paint4_linear_13860_2123)"/>
<path d="M0 69.3908C4.46209 69.2947 9.25951 69.2307 13.6969 69.728C16.0935 69.9966 21.2739 72.6433 23.0995 71.5897C25.319 69.0082 25.2245 58.4526 24.9987 55.2241C24.3159 45.4597 19.6826 37.4675 13.0329 30.5408C12.4102 29.8922 9.97283 27.3461 10.3342 26.5239C11.6981 25.9179 16.3439 27.5066 18.0487 27.8994C24.8885 29.4751 30.7338 33.1721 36.0508 37.6165C37.4137 38.7557 40.6787 42.7077 41.7098 43.0949C42.0186 42.3303 42.2275 39.0587 42.3039 38.0449C42.4967 35.4933 44.0405 25.5873 47.0402 25.3583C48.9499 26.8351 50.0056 31.224 51.1258 33.4248C52.8187 36.8674 55.5932 42.511 58.4502 45.0196C65.6617 51.3518 76.0377 51.9014 84.414 56.6937C116.886 75.2715 113.775 122.339 79.5078 137.077C77.2866 138.032 74.6587 138.582 72.3622 139.387C65.3481 143.74 59.1525 142.807 52.1001 139.282C50.8393 138.651 47.6377 138.112 46.2045 137.462C32.6418 132.174 21.673 121.072 18.1634 106.724C16.6023 100.342 16.09 93.0495 13.4092 86.8755C10.7827 80.8984 5.08128 75.0569 0 70.9711V69.3908ZM72.8756 135.262C87.8321 130.251 97.4926 121.37 101.71 105.97C104.43 96.0346 103.348 85.9631 98.6191 76.8268C94.5526 68.8841 88.0036 62.4866 79.9677 58.6076C77.9657 57.6208 74.6244 56.4482 72.5036 55.9658C62.5989 53.7125 54.977 49.0209 49.8379 40.0427C48.8868 38.3813 47.8748 35.8417 46.4556 34.4785C45.2371 38.8407 46.0813 48.7742 47.3716 53.0323C49.96 61.5735 55.6446 70.2519 62.8583 75.5734C66.793 78.4759 70.8639 79.6887 74.8685 82.3641C83.2942 88.1285 85.0716 102.428 82.624 111.605C80.5273 119.466 74.88 126.677 67.8597 130.887C64.7867 132.729 57.0375 134.338 55.3659 135.759L55.3013 136.056C57.5997 137.841 69.8899 135.858 72.8756 135.262ZM74.5598 119.386C75.3944 118.049 80.6177 109.667 78.9988 108.661C78.0334 109.08 75.6334 111.432 74.6501 112.277C65.9194 119.818 50.6758 114.684 46.0422 104.82C44.9686 102.534 44.1589 99.8893 43.0842 97.4672C39.1884 88.6884 31.435 80.1804 22.6293 76.2221C20.6662 75.3396 11.5623 73.0483 9.50035 73.0815C10.0413 75.7929 12.3095 77.6488 13.9018 79.8833C21.1761 90.0875 19.5017 103.556 25.3511 114.43C27.9046 119.177 31.08 123.359 35.5476 126.428C47.7047 134.777 66.11 132.182 74.4173 119.607C74.4657 119.534 74.5132 119.461 74.5598 119.386ZM72.9771 109C79.3334 102.963 80.3585 93.1148 74.0712 86.7385C68.7113 81.3026 57.4923 79.8974 50.2099 79.4916C50.1763 79.5248 49.8371 79.8594 49.8371 79.8594C48.4585 89.1835 45.2749 99.8495 52.7643 107.374C55.7789 110.353 59.8329 112.046 64.0714 112.094C67.5149 112.1 70.1631 110.9 72.9771 109ZM44.6391 90.6046C44.7528 89.4568 44.9038 88.1897 44.9259 87.035C45.01 82.6298 46.5196 78.6431 46.905 74.2299C47.8147 63.6433 44.5368 53.1223 37.7751 44.9259C34.4024 40.8042 25.9697 34.0178 20.8518 32.7158C21.542 35.4673 22.9733 36.8034 24.2977 39.1402C29.4112 48.1618 29.8807 59.3167 28.0979 69.3103C27.6693 71.7139 26.0174 73.2572 28.7869 75.0112C31.9189 77.4575 35.1058 80.0442 37.9963 82.7754C39.173 83.8728 43.7302 90.8313 44.6391 90.6046ZM50.9599 75.1649C52.7103 75.3986 54.7399 75.7163 56.4821 75.6515C56.4792 74.3293 52.5868 70.9316 51.3349 70.3002C51.0146 71.46 50.9951 73.9042 50.9599 75.1649Z" fill="url(#paint5_linear_13860_2123)"/>
<defs>
<linearGradient id="paint0_linear_13860_2123" x1="233.148" y1="86.8404" x2="233.148" y2="115.178" gradientUnits="userSpaceOnUse">
<stop stop-color="#F91361"/>
</linearGradient>
<linearGradient id="paint1_linear_13860_2123" x1="182.172" y1="86.0467" x2="182.172" y2="114.481" gradientUnits="userSpaceOnUse">
<stop stop-color="#F91361"/>
</linearGradient>
<linearGradient id="paint2_linear_13860_2123" x1="284.223" y1="93.5578" x2="284.223" y2="115.047" gradientUnits="userSpaceOnUse">
<stop stop-color="#F91361"/>
</linearGradient>
<linearGradient id="paint3_linear_13860_2123" x1="150.681" y1="93.8169" x2="150.681" y2="114.455" gradientUnits="userSpaceOnUse">
<stop stop-color="#F91361"/>
</linearGradient>
<linearGradient id="paint4_linear_13860_2123" x1="129.741" y1="85.7432" x2="129.741" y2="114.423" gradientUnits="userSpaceOnUse">
<stop stop-color="#F91361"/>
</linearGradient>
<linearGradient id="paint5_linear_13860_2123" x1="53.5391" y1="25.3583" x2="53.5391" y2="142.302" gradientUnits="userSpaceOnUse">
<stop stop-color="#F91361"/>
</linearGradient>
</defs>
</svg>
